PathFileType	4	(X/Y/Z)	./resultDataOpenSim/trcMotMarkerGrf/sub10/qtm-02-08.trc
DataRate	CameraRate	NumFrames	NumMarkers	Units	OrigDataRate	OrigDataStartFrame	OrigNumFrames
250.000000	250.000000	14	24	m	250.000000	237	473
Frame#	Time	L.Toe.Tip			R.Toe.Tip			L.Ankle.Lat			R.Ankle.Lat			L.Ankle.Med			R.Ankle.Med			L.Heel			R.Heel			L.Knee.Lat			R.Knee.Lat			L.Knee.Med			R.Knee.Med			L.Thigh.Upper			R.Thigh.Upper			L.ASIS			R.ASIS			V.Sacral			L.Acromium			R.Acromium			C7			L.Elbow			R.Elbow			L.Wrist.Lat			R.Wrist.Lat
		X1	Y1	Z1	X2	Y2	Z2	X3	Y3	Z3	X4	Y4	Z4	X5	Y5	Z5	X6	Y6	Z6	X7	Y7	Z7	X8	Y8	Z8	X9	Y9	Z9	X10	Y10	Z10	X11	Y11	Z11	X12	Y12	Z12	X13	Y13	Z13	X14	Y14	Z14	X15	Y15	Z15	X16	Y16	Z16	X17	Y17	Z17	X18	Y18	Z18	X19	Y19	Z19	X20	Y20	Z20	X21	Y21	Z21	X22	Y22	Z22	X23	Y23	Z23	X24	Y24	Z24

237	0.944	0.025705881	0.017088137	-0.12509232	0.064676513	0.071439086	0.041071454	-0.1087423	0.047969456	-0.15167861	-0.055161208	0.15097347	0.046476156	-0.10410736	0.068147989	-0.069168277	-0.0061509574	0.1605491	-0.028563381	-0.17474331	0.020623142	-0.10790581	-0.10068126	0.14488171	-0.011246642	-0.028996303	0.42800682	-0.1799313	0.14570488	0.47628553	0.098403562	-0.033368815	0.4052206	-0.057824366	0.20047665	0.48884558	-0.02258451	0.012941145	0.82172106	-0.23013173	-0.019683236	0.84605651	0.14581131	0.067955004	0.93056258	-0.15890075	0.05221193	0.94283734	0.082072463	-0.1457229	0.96272259	-0.044439301	0.021964575	1.4116931	-0.18936497	-0.013121257	1.408089	0.12939185	-0.077581761	1.4362696	-0.046420909	-0.060254623	1.083916	-0.28056549	-0.10655463	1.0682738	0.16023843	0.078035942	0.88314775	-0.29418015	0.043759408	0.87118806	0.18917375
238	0.948	0.025757529	0.017082539	-0.12507885	0.086108083	0.070827172	0.040837543	-0.10859994	0.048266981	-0.15135476	-0.036394289	0.1461742	0.045791597	-0.10359428	0.068450322	-0.069001352	0.01248695	0.15725893	-0.029252009	-0.17473478	0.021089898	-0.10731759	-0.081251164	0.13847614	-0.012101869	-0.02787859	0.42804628	-0.180008	0.15538116	0.47791354	0.098056887	-0.032281295	0.40543023	-0.057993815	0.20914169	0.49184577	-0.022940627	0.017421365	0.82148621	-0.23013062	-0.013079134	0.84715851	0.14590617	0.07272895	0.93015738	-0.15956069	0.058450092	0.94323354	0.081155482	-0.13556278	0.96091057	-0.047006931	0.027760608	1.4119491	-0.1895641	-0.0072833876	1.4080826	0.12923061	-0.071650884	1.4364246	-0.046615566	-0.05259287	1.0835257	-0.28141012	-0.10237973	1.0689329	0.16015943	0.089185021	0.88484212	-0.29450728	0.045659727	0.87069295	0.19078679
239	0.952	0.025784399	0.017065712	-0.12507347	0.10756538	0.070343912	0.040708936	-0.10854645	0.04858541	-0.15103503	-0.01747212	0.14145217	0.045125255	-0.10317262	0.068782739	-0.068782556	0.031261565	0.15397888	-0.029892316	-0.17470077	0.021550996	-0.10629643	-0.061323139	0.13209249	-0.013058192	-0.026753976	0.4280786	-0.18005682	0.16494939	0.47947187	0.097755121	-0.031191767	0.40559912	-0.058110278	0.21761912	0.49466146	-0.023261002	0.021661866	0.82123672	-0.2303508	-0.0069418587	0.84827451	0.14614322	0.077529297	0.92972868	-0.16021824	0.064645725	0.94352448	0.08023521	-0.12499368	0.95909739	-0.049461782	0.033551897	1.4121205	-0.18978227	-0.0014256884	1.4080007	0.12907052	-0.06571689	1.4365248	-0.046808028	-0.044882618	1.0830587	-0.28224568	-0.097922757	1.0695007	0.1599835	0.1004241	0.88653928	-0.29478036	0.047632051	0.87017809	0.1923518
240	0.956	0.025810646	0.017036685	-0.12509681	0.12904697	0.069985939	0.040676675	-0.10856596	0.048913849	-0.15068481	0.0016225567	0.13679568	0.044473045	-0.10285186	0.069185728	-0.068507966	0.050153331	0.15073374	-0.030471121	-0.17462279	0.022027193	-0.10512807	-0.0411523	0.12581079	-0.01410405	-0.025605925	0.42811687	-0.18009512	0.17440087	0.48093146	0.097509188	-0.030059159	0.4056833	-0.058152678	0.22590709	0.49727024	-0.02353344	0.025604599	0.82095676	-0.23073887	-0.00092160993	0.84929486	0.14642867	0.082301076	0.92926962	-0.16089816	0.070814928	0.9437135	0.079324097	-0.1164918	0.95811387	-0.050669447	0.039342078	1.4122114	-0.19001696	0.0044488733	1.4078344	0.12890887	-0.059783152	1.4365674	-0.047001134	-0.037145201	1.0825188	-0.28307448	-0.093445682	1.0700081	0.15983031	0.11171676	0.88824209	-0.29501265	0.049629771	0.86963119	0.19388825
241	0.96	0.02587138	0.017004079	-0.12517134	0.15055541	0.069759065	0.040735797	-0.10862026	0.049247935	-0.15026844	0.020915352	0.13218039	0.043834701	-0.10263364	0.069684872	-0.068183101	0.069205289	0.14752692	-0.030968328	-0.174527	0.022551726	-0.10417762	-0.020858936	0.11968384	-0.015251925	-0.024410783	0.42818368	-0.18015382	0.18371647	0.48225302	0.097312921	-0.028809953	0.40567021	-0.058121132	0.23401068	0.49964347	-0.023757138	0.029364121	0.82064191	-0.23112262	0.0053359955	0.85012985	0.14667501	0.087046891	0.92878375	-0.16160222	0.076995513	0.94380325	0.078443769	-0.11027015	0.95790651	-0.050830412	0.045132983	1.4122235	-0.19026893	0.01034338	1.4075836	0.12874414	-0.053848143	1.436553	-0.047196932	-0.029396721	1.0819088	-0.28389623	-0.089203464	1.0704799	0.15981552	0.12298135	0.8899421	-0.29521924	0.051645414	0.86903826	0.19540741
242	0.964	0.025981089	0.016979511	-0.12529012	0.17209494	0.069681651	0.040881869	-0.10870799	0.049595783	-0.1497751	0.04041206	0.12759619	0.043226167	-0.10248125	0.070257463	-0.067803443	0.088457447	0.14438666	-0.031386817	-0.17446426	0.023126194	-0.10352927	-0.00039009574	0.11369592	-0.016506637	-0.02316592	0.42830158	-0.18025911	0.19287141	0.48342289	0.097147862	-0.027487891	0.4055867	-0.058004418	0.24195276	0.50176368	-0.023939925	0.0330766	0.82029889	-0.23141279	0.011881203	0.85077946	0.14687523	0.091787608	0.92827563	-0.16231612	0.083235709	0.94380089	0.077619123	-0.10536512	0.95797305	-0.050681958	0.050922442	1.412158	-0.19053954	0.016260499	1.4072608	0.12857593	-0.047906877	1.4364837	-0.047390536	-0.021643893	1.0812298	-0.28470819	-0.085183548	1.0709073	0.15992912	0.13414641	0.89162686	-0.29540617	0.05368524	0.86840011	0.19691856
243	0.968	0.026100888	0.01696077	-0.1253986	0.19366987	0.069780002	0.041102924	-0.10883655	0.049957512	-0.14923103	0.060099222	0.12305666	0.04268868	-0.10232854	0.070827962	-0.067377935	0.10790125	0.14137227	-0.031787186	-0.17445618	0.023708806	-0.10305422	0.020302863	0.10781718	-0.017766272	-0.021927209	0.42846985	-0.18038454	0.20184387	0.48444938	0.096993474	-0.026138653	0.40547154	-0.057833937	0.24976732	0.50362911	-0.02408846	0.036796475	0.81993977	-0.23164816	0.018569997	0.85128112	0.14704849	0.09653134	0.92774487	-0.16302515	0.089565502	0.94371723	0.076865581	-0.10086934	0.95794334	-0.050555514	0.056707265	1.4120167	-0.19082997	0.022192355	1.4068788	0.1284077	-0.041956681	1.4363605	-0.04757634	-0.013891057	1.0804804	-0.28549984	-0.081196025	1.0712657	0.16008065	0.1452051	0.89329058	-0.29556583	0.055766671	0.86772586	0.19842705
244	0.972	0.026155194	0.016930756	-0.12542845	0.21527742	0.070081698	0.04138054	-0.10895439	0.050318912	-0.14871529	0.079959805	0.11858825	0.042269128	-0.10213077	0.071321127	-0.066949989	0.12747922	0.13852971	-0.032239352	-0.17446375	0.024254982	-0.10262482	0.041157424	0.10205972	-0.018848809	-0.02083125	0.42864385	-0.18042044	0.21062934	0.4853429	0.096843898	-0.024729101	0.40535306	-0.057675026	0.25748034	0.50524785	-0.024205573	0.040512799	0.81957346	-0.23189878	0.02525908	0.85165147	0.14719274	0.10126636	0.927187	-0.16372874	0.095972929	0.94356225	0.076179905	-0.09608385	0.95772414	-0.050190519	0.062488991	1.4117973	-0.19113983	0.028126482	1.4064403	0.12824243	-0.035999186	1.4361808	-0.047755673	-0.0061434782	1.07966	-0.28624895	-0.07711123	1.0715436	0.16021141	0.15619144	0.8949354	-0.29568673	0.057920646	0.86702327	0.19993052
245	0.976	0.026113716	0.016884782	-0.1253707	0.2369007	0.070605661	0.041697845	-0.10897738	0.050669275	-0.14831127	0.099998458	0.11421862	0.041969905	-0.10189324	0.071710705	-0.066571107	0.14712331	0.13587029	-0.032718839	-0.17441454	0.024754424	-0.10213632	0.062097091	0.096467762	-0.019661113	-0.020036313	0.42875161	-0.18022769	0.21924679	0.48611223	0.09671406	-0.02322473	0.40524421	-0.057561971	0.26509585	0.50663007	-0.02429212	0.044176249	0.81919643	-0.23219724	0.031868203	0.85188536	0.14728872	0.10596561	0.9265948	-0.16444486	0.10242429	0.94334091	0.075549463	-0.090626504	0.95736507	-0.049239727	0.068270921	1.4114952	-0.1914663	0.034068329	1.4059422	0.12807222	-0.030038174	1.4359412	-0.047932082	0.0015998204	1.0787739	-0.28694239	-0.07293466	1.0717467	0.16032152	0.16713442	0.89656727	-0.29576289	0.06015921	0.86629792	0.20142154
246	0.98	0.026019357	0.016839813	-0.12528121	0.25850735	0.071352163	0.042042159	-0.10888441	0.05101084	-0.14801694	0.12025336	0.10998571	0.041715248	-0.10164277	0.07201854	-0.066255054	0.16681547	0.13339239	-0.033097665	-0.17424552	0.02522176	-0.10148462	0.083118446	0.091089596	-0.02025883	-0.019551641	0.42875563	-0.17977773	0.22772072	0.48676283	0.096621741	-0.021631885	0.40513908	-0.057493366	0.2726018	0.50778186	-0.024348518	0.047730804	0.81879528	-0.23252938	0.038377038	0.8519823	0.14732726	0.11060307	0.92595924	-0.1651961	0.10889982	0.94305204	0.074963207	-0.084679783	0.95690931	-0.047813237	0.074050183	1.4111123	-0.19180567	0.040045667	1.40538	0.12788222	-0.024075491	1.435638	-0.048104027	0.0093714253	1.0778294	-0.28761496	-0.06872813	1.0718851	0.16041934	0.17804877	0.89819182	-0.29579015	0.062440663	0.86555078	0.20289
247	0.984	0.025917267	0.016810375	-0.12520481	0.28006043	0.07230708	0.042401631	-0.10874225	0.051348425	-0.14774364	0.14073155	0.10595641	0.041413639	-0.10138517	0.072285903	-0.065969652	0.18658784	0.13110468	-0.033259344	-0.17394963	0.02567564	-0.10064057	0.10426161	0.085958252	-0.020749317	-0.01913958	0.42869808	-0.17923505	0.23605924	0.48728619	0.096569594	-0.019968326	0.40501635	-0.057464971	0.27998661	0.50870358	-0.024373233	0.051170217	0.81836115	-0.23283711	0.044844521	0.85196255	0.14733298	0.11519546	0.92527982	-0.16598097	0.11539923	0.94269272	0.074413412	-0.078722963	0.95636054	-0.046339362	0.07982173	1.4106574	-0.19215146	0.046077845	1.4047493	0.12766417	-0.018111797	1.435269	-0.048269995	0.017244349	1.0768242	-0.2883492	-0.064530614	1.0719619	0.1604834	0.18894061	0.89981187	-0.29576014	0.064701786	0.86477668	0.20432537
248	0.988	0.025824397	0.016797857	-0.12515244	0.30153255	0.073456037	0.042765628	-0.10863426	0.051682003	-0.14741071	0.16132132	0.10221175	0.041057507	-0.10110312	0.072544308	-0.065671787	0.20646457	0.12901958	-0.033197592	-0.17360915	0.026135046	-0.099715367	0.12555448	0.081080652	-0.021185327	-0.018509441	0.42865521	-0.17881864	0.24425532	0.4876553	0.096548497	-0.018243321	0.40486018	-0.05747141	0.28724508	0.50939266	-0.0243639	0.054568925	0.81789764	-0.23304764	0.051432402	0.85187106	0.14737058	0.11981777	0.9245749	-0.1667643	0.12192665	0.94226215	0.073897065	-0.073000931	0.95571564	-0.045067524	0.0855858	1.4101352	-0.19249386	0.05215198	1.4040495	0.12742338	-0.012153237	1.4348326	-0.048433402	0.025245728	1.0757452	-0.28917505	-0.060345939	1.0719754	0.1604918	0.1998032	0.90142741	-0.29566922	0.066913368	0.86396803	0.20572065
249	0.992	0.025760882	0.016799799	-0.1251357	0.32290551	0.074787802	0.043129243	-0.10859571	0.052010937	-0.14700393	0.18186126	0.09878418	0.040688167	-0.10078377	0.0728034	-0.065340178	0.22644168	0.12713546	-0.032981762	-0.17333404	0.026612809	-0.098870991	0.14698078	0.076451061	-0.021529319	-0.017578487	0.42865404	-0.17859383	0.25230243	0.48783484	0.096554043	-0.016456491	0.40467915	-0.057487093	0.29437341	0.50984794	-0.024321605	0.058024751	0.81741047	-0.23315203	0.058340311	0.85176245	0.147514	0.12451998	0.9238626	-0.16751388	0.12848019	0.94176338	0.07341699	-0.067411558	0.95497334	-0.043961506	0.09134632	1.4095389	-0.19282693	0.058237956	1.4032846	0.12717791	-0.0062105791	1.4343267	-0.048592545	0.033261306	1.0745844	-0.28996757	-0.056174824	1.0719338	0.16048009	0.2106141	0.90303385	-0.29553143	0.069089318	0.86312254	0.20707468
250	0.996	0.025738211	0.016810532	-0.12515733	0.34416181	0.076290649	0.043491326	-0.10862213	0.05233656	-0.14653545	0.20229579	0.095626976	0.040293452	-0.10042891	0.07306273	-0.06497267	0.24648222	0.12544783	-0.032679448	-0.17315706	0.02710989	-0.098164088	0.16848093	0.072087736	-0.021719393	-0.016448655	0.42866567	-0.17847408	0.26019881	0.48780105	0.096598184	-0.014602666	0.40449632	-0.057470399	0.30136653	0.51007127	-0.02424683	0.061573684	0.81689119	-0.23321973	0.065612381	0.85164537	0.14777327	0.12926458	0.92313707	-0.168231	0.13505241	0.94120593	0.072978675	-0.061728938	0.95413006	-0.042916323	0.09711019	1.4088617	-0.19315633	0.064319161	1.4024606	0.12694148	-0.00028992421	1.4337503	-0.048730648	0.041157896	1.0733537	-0.29058367	-0.052047546	1.071859	0.16052798	0.22134938	0.90462234	-0.29536788	0.07129604	0.86225359	0.20840316
